<svg xmlns="http://www.w3.org/2000/svg" width="200" height="200" viewBox="0 0 200 200">
  <rect x="50" y="50" width="100" height="15" rx="5" fill="#00000" />
  <rect x="50" y="70" width="100" height="15" rx="5" fill="#00000" />
  <rect x="50" y="90" width="100" height="15" rx="5" fill="#00000" />
  <rect x="50" y="110" width="100" height="15" rx="5" fill="#00000" />
  <rect x="50" y="130" width="100" height="15" rx="5" fill="#00000" />
  <path d="M85,90 a15,15 0 1,1 30,0" fill="none" stroke="#FFFFFF" stroke-width="10" transform="translate(-20, -17) scale(1.2)" />
  <rect x="70" y="90" width="60" height="50" rx="10" fill="#FFFFFF" />
  <path d="M10.5199 9.31954C12.0034 8.45222 13 6.84249 13 5C13 2.23858 10.7614 0 8 0C5.23858 0 3 2.23858 3 5C3 6.84249 3.99659 8.45222 5.48013 9.31954L4 14.5V16H12V14.5L10.5199 9.31954Z" fill="#000000" transform="translate(84, 100) scale(2)"/>
</svg>
